<svg width="41" height="41" viewBox="0 0 41 41" fill="none" xmlns="http://www.w3.org/2000/svg">
<rect x="1.28027" y="1.25" width="39" height="39" rx="19.5" stroke="white"/>
<g clip-path="url(#clip0_2_3559)">
<path d="M20.6948 18.9833C21.7614 18.9833 22.6681 18.6011 23.4148 17.8367C24.1614 17.0722 24.5348 16.1567 24.5348 15.09C24.5348 14.0233 24.1614 13.1167 23.4148 12.37C22.6681 11.6233 21.7614 11.25 20.6948 11.25C19.6281 11.25 18.7214 11.6233 17.9748 12.37C17.2281 13.1167 16.8548 14.0233 16.8548 15.09C16.8548 16.1567 17.2281 17.0722 17.9748 17.8367C18.7214 18.6011 19.6281 18.9833 20.6948 18.9833ZM18.6148 13.0633C19.1837 12.4944 19.8681 12.21 20.6681 12.21C21.4681 12.21 22.1614 12.4944 22.7481 13.0633C23.3348 13.6322 23.6281 14.3167 23.6281 15.1167C23.6281 15.9167 23.3437 16.6011 22.7748 17.17C22.2059 17.7389 21.5125 18.0233 20.6948 18.0233C19.877 18.0233 19.1837 17.7389 18.6148 17.17C18.0459 16.6011 17.7614 15.9167 17.7614 15.1167C17.7614 14.3167 18.0459 13.6322 18.6148 13.0633ZM27.4148 23.57C27.4148 23.25 27.3792 22.9033 27.3081 22.53C27.237 22.1567 27.1481 21.8189 27.0414 21.5167C26.9348 21.2144 26.7925 20.9033 26.6148 20.5833C26.437 20.2633 26.2325 19.9878 26.0014 19.7567C25.7703 19.5256 25.477 19.3389 25.1214 19.1967C24.7659 19.0544 24.3748 18.9833 23.9481 18.9833C23.8059 18.9833 23.5925 19.0722 23.3081 19.25L22.6681 19.6767C22.4548 19.8189 22.1703 19.9433 21.8148 20.05C21.4592 20.1567 21.1125 20.21 20.7748 20.21C20.437 20.21 20.0903 20.1567 19.7348 20.05C19.3792 19.9433 19.1125 19.8189 18.9348 19.6767L18.2414 19.25C17.9925 19.0722 17.797 18.9833 17.6548 18.9833C17.2281 18.9833 16.837 19.0544 16.4814 19.1967C16.1259 19.3389 15.8237 19.5256 15.5748 19.7567C15.3259 19.9878 15.1125 20.2633 14.9348 20.5833C14.757 20.9033 14.6148 21.2233 14.5081 21.5433C14.4014 21.8633 14.3214 22.2011 14.2681 22.5567C14.2148 22.9122 14.1792 23.2411 14.1614 23.5433C14.1437 23.8456 14.1348 24.1567 14.1348 24.4767C14.1348 25.33 14.3925 26.0056 14.9081 26.5033C15.4237 27.0011 16.1081 27.25 16.9614 27.25H24.6414C25.4592 27.25 26.1348 27.0011 26.6681 26.5033C27.2014 26.0056 27.4681 25.33 27.4681 24.4767C27.4681 24.1567 27.4503 23.8544 27.4148 23.57ZM26.0281 25.81C25.6725 26.13 25.2103 26.29 24.6414 26.29H16.9614C16.357 26.29 15.8859 26.13 15.5481 25.81C15.2103 25.49 15.0414 25.0456 15.0414 24.4767L15.0948 23.6233C15.0948 23.3389 15.1303 23.0367 15.2014 22.7167C15.2725 22.3967 15.3437 22.1033 15.4148 21.8367C15.4859 21.57 15.5925 21.3122 15.7348 21.0633C15.877 20.8144 16.037 20.61 16.2148 20.45C16.3925 20.29 16.597 20.1656 16.8281 20.0767C17.0592 19.9878 17.2992 19.9433 17.5481 19.9433L18.4014 20.4767C18.6859 20.6544 19.0414 20.8056 19.4681 20.93C19.8948 21.0544 20.3303 21.1167 20.7748 21.1167C21.2192 21.1167 21.6637 21.0544 22.1081 20.93C22.5525 20.8056 22.8992 20.6544 23.1481 20.4767L24.0014 19.9433C24.2859 19.9433 24.5437 19.9878 24.7748 20.0767C25.0059 20.1656 25.2014 20.29 25.3614 20.45C25.5214 20.61 25.6725 20.8144 25.8148 21.0633C25.957 21.3122 26.0725 21.57 26.1614 21.8367C26.2503 22.1033 26.3214 22.3967 26.3748 22.7167C26.4281 23.0367 26.4725 23.3389 26.5081 23.6233V24.4767C26.5081 25.0456 26.3481 25.49 26.0281 25.81Z" fill="white"/>
</g>
<defs>
<clipPath id="clip0_2_3559">
<rect width="15.95" height="16" fill="white" transform="matrix(1 0 0 -1 12.7998 27.25)"/>
</clipPath>
</defs>
</svg>
